<?xml version="1.0" standalone="no"?>
<!DOCTYPE svg PUBLIC "-//W3C//DTD SVG 20010904//EN"
 "http://www.w3.org/TR/2001/REC-SVG-20010904/DTD/svg10.dtd">
<svg version="1.0" xmlns="http://www.w3.org/2000/svg"
 width="494.000000pt" height="494.000000pt" viewBox="0 0 494.000000 494.000000"
 preserveAspectRatio="xMidYMid meet">
<metadata>
Created by potrace 1.14, written by Peter Selinger 2001-2017
</metadata>
<g transform="translate(0.000000,494.000000) scale(0.100000,-0.100000)"
fill="#000000" stroke="none">
<path d="M2008 3905 c-2 -2 -26 -6 -53 -9 -136 -14 -322 -92 -465 -194 -222
-159 -398 -436 -446 -705 -7 -44 -7 -44 -90 -51 -310 -30 -606 -241 -743 -529
-112 -235 -126 -502 -41 -749 111 -322 398 -564 738 -621 61 -11 399 -13 1677
-13 1777 2 1620 -4 1779 68 225 103 379 285 446 528 32 115 32 288 1 404 -58
216 -205 405 -397 508 -38 20 -114 50 -169 66 -55 15 -100 32 -100 38 -5 92
-87 291 -162 390 -160 213 -349 333 -602 381 -45 9 -264 9 -311 1 -33 -6 -37
-4 -75 48 -154 214 -402 370 -670 424 -56 11 -309 23 -317 15z m313 -343 c232
-62 409 -217 527 -464 l32 -66 88 30 c140 47 246 60 357 42 112 -17 246 -86
325 -166 139 -139 194 -277 199 -498 1 -63 5 -117 7 -119 3 -3 57 -6 122 -7
139 -2 173 -7 233 -30 224 -89 353 -331 298 -559 -12 -54 -61 -159 -84 -181
-7 -8 -22 -24 -32 -37 -49 -61 -149 -120 -240 -142 -62 -15 -200 -16 -1623
-12 -855 3 -1571 8 -1590 12 -242 50 -446 249 -497 485 -8 41 -9 231 -1 275
27 142 136 310 253 392 109 74 213 107 350 107 101 1 135 -2 251 -23 l42 -8 0
141 c1 261 53 414 200 584 115 133 262 218 442 257 80 18 250 11 341 -13z"/>
<path d="M2425 2814 l-17 -26 63 -65 c84 -85 96 -91 122 -64 l21 21 -79 80
c-44 44 -82 80 -86 80 -4 0 -14 -12 -24 -26z"/>
<path d="M2316 2678 l-78 -81 66 -66 66 -66 32 33 33 32 117 -117 c111 -111
118 -116 142 -105 15 6 26 17 26 23 0 7 -53 65 -117 130 l-117 119 24 25 24
25 -64 65 c-36 36 -67 65 -70 64 -3 0 -40 -37 -84 -81z"/>
<path d="M2179 2571 l-24 -20 35 -36 c50 -54 84 -87 109 -109 20 -18 22 -18
41 -1 11 10 20 22 20 27 0 9 -107 119 -141 146 -14 10 -21 9 -40 -7z"/>
<path d="M1336 2390 c-53 -41 -136 -70 -204 -70 -29 0 -44 -5 -51 -17 -9 -19
-7 -257 4 -308 26 -130 92 -228 193 -288 102 -62 118 -64 193 -29 122 57 199
149 234 278 19 70 30 317 14 345 -7 14 -21 19 -53 19 -63 0 -137 25 -204 70
-33 22 -63 40 -68 39 -5 0 -31 -18 -58 -39z m104 -53 c46 -31 139 -66 185 -69
20 -1 39 -7 43 -12 7 -12 6 -151 -3 -225 -15 -129 -94 -243 -207 -300 -53 -27
-77 -24 -141 16 -108 66 -166 158 -183 287 -7 55 -8 215 -2 221 3 4 21 9 40
11 81 12 195 60 206 86 6 14 26 9 62 -15z"/>
<path d="M1435 2076 c-36 -36 -69 -66 -73 -66 -3 0 -20 14 -37 30 -32 31 -65
33 -65 4 0 -22 80 -104 100 -104 23 0 175 155 175 178 0 36 -35 21 -100 -42z"/>
<path d="M3236 2396 c3 -8 12 -12 21 -9 12 5 12 7 1 14 -20 13 -28 11 -22 -5z"/>
<path d="M2110 2282 c-6 -2 -8 -8 -4 -13 3 -5 -6 -13 -20 -19 -31 -12 -35 -47
-6 -58 21 -8 286 -9 294 -1 15 15 9 45 -12 54 -12 5 -24 17 -27 25 -4 13 -24
15 -110 15 -57 0 -109 -1 -115 -3z"/>
<path d="M3129 2232 c-28 -23 -30 -73 -4 -102 23 -26 76 -26 99 -1 62 68 -23
160 -95 103z"/>
<path d="M3511 2224 c-12 -15 -21 -34 -21 -44 0 -33 39 -70 73 -70 40 0 53 9
66 43 29 76 -68 135 -118 71z"/>
<path d="M3335 2128 c-28 -16 -35 -28 -35 -64 0 -59 67 -90 114 -53 31 24 36
77 9 102 -25 22 -64 29 -88 15z"/>
<path d="M3106 2073 c-60 -20 -76 -39 -76 -90 l0 -43 86 0 c71 0 90 4 111 20
14 11 32 20 39 20 22 0 26 18 9 43 -8 13 -12 26 -9 29 10 11 -40 31 -81 33
-22 1 -58 -4 -79 -12z"/>
<path d="M3510 2077 c-22 -7 -36 -20 -38 -32 -2 -11 -9 -26 -14 -33 -6 -7 -9
-14 -7 -15 79 -54 88 -57 174 -57 l85 0 0 49 c0 48 -1 50 -42 70 -56 26 -115
33 -158 18z"/>
<path d="M3350 1972 c-35 -4 -81 -23 -105 -41 -26 -21 -31 -97 -6 -103 13 -3
249 -2 272 1 5 1 5 58 0 92 -1 10 -71 41 -106 48 -16 4 -41 5 -55 3z"/>
</g>
</svg>
